# Blender v2.79 (sub 0) OBJ File: ''
# www.blender.org
mtllib picture_frame.mtl
o Cube
v -1.036393 -0.134170 -1.639077
v -1.036393 -0.134170 -1.370737
v -1.308107 -0.134170 -1.369178
v -1.308107 -0.134170 -1.637518
v -1.036393 0.134170 -1.639077
v -1.036393 0.134170 -1.370737
v -1.308107 0.134170 -1.369178
v -1.308107 0.134170 -1.637518
v -1.036393 -0.138560 -1.206327
v -1.308107 -0.138560 -1.204768
v -1.036393 -0.051559 -1.206327
v -1.308599 -0.051559 -1.203800
v -1.036393 -0.136115 -1.175101
v -1.308962 -0.136115 -1.171214
v -1.036393 0.016476 -1.175101
v -1.308962 0.016477 -1.171214
v 1.393402 -0.134169 -1.639076
v 1.393402 -0.134169 -1.370737
v 1.393402 0.134171 -1.639076
v 1.393402 0.134171 -1.370737
v 1.393402 -0.138560 -1.206326
v 1.393402 -0.051558 -1.206326
v 1.393402 -0.136115 -1.175100
v 1.393402 0.016477 -1.175100
v 1.579162 -0.134169 -1.639076
v 1.579162 -0.134169 -1.370737
v 1.579162 0.134171 -1.639076
v 1.579162 0.134171 -1.370737
v 1.579162 -0.138559 -1.206326
v 1.579162 -0.051558 -1.206326
v 1.582406 -0.136115 -1.172377
v 1.582406 0.016477 -1.172377
v 1.313924 -0.134170 2.190874
v 1.313924 -0.134170 1.922535
v 1.583247 -0.134170 1.920598
v 1.583247 -0.134170 2.188938
v 1.313924 0.134170 2.190874
v 1.313924 0.134170 1.922535
v 1.583247 0.134170 1.920598
v 1.583247 0.134170 2.188938
v 1.313924 -0.138560 1.758125
v 1.583247 -0.138560 1.756188
v 1.313924 -0.051559 1.758124
v 1.583247 -0.051559 1.756188
v 1.313924 -0.136115 1.726898
v 1.584955 -0.136115 1.720307
v 1.313924 0.016476 1.726898
v 1.584955 0.016477 1.720307
v -1.115872 -0.134169 2.190874
v -1.115872 -0.134169 1.922534
v -1.115872 0.134171 2.190874
v -1.115872 0.134171 1.922534
v -1.115872 -0.138560 1.758124
v -1.115871 -0.051558 1.758124
v -1.115872 -0.136114 1.726897
v -1.115871 0.016477 1.726897
v -1.304514 -0.134169 2.191465
v -1.304514 -0.134169 1.923125
v -1.304514 0.134171 2.191465
v -1.304514 0.134171 1.923125
v -1.304514 -0.138559 1.758715
v -1.304514 -0.051558 1.758715
v -1.306136 -0.136115 1.726127
v -1.306136 0.016477 1.726127
v 2.049626 -0.134170 -0.901314
v 1.781286 -0.134170 -0.901314
v 1.781286 -0.134170 -1.169654
v 2.049626 -0.134170 -1.169654
v 2.049626 0.134170 -0.901314
v 1.781286 0.134170 -0.901314
v 1.781286 0.134170 -1.169654
v 2.049626 0.134170 -1.169654
v 1.616876 -0.138560 -0.901314
v 1.616876 -0.138560 -1.169654
v 1.616876 -0.051559 -0.901314
v 1.616876 -0.051559 -1.169654
v 1.585650 -0.136115 -0.901314
v 1.776402 -0.138559 -1.313742
v 1.585650 0.016476 -0.901314
v 1.776402 0.143646 -1.313742
v 2.049625 -0.134169 1.528481
v 1.781286 -0.134169 1.528481
v 2.049625 0.134171 1.528481
v 1.781286 0.134171 1.528481
v 1.616876 -0.138560 1.528481
v 1.616875 -0.051558 1.528481
v 1.585649 -0.136114 1.528481
v 1.585649 0.016477 1.528481
v 2.051639 -0.134169 1.715389
v 1.783299 -0.134169 1.715389
v 2.051639 0.134171 1.715389
v 1.783299 0.134171 1.715389
v 1.618889 -0.138559 1.715389
v 1.618889 -0.051558 1.715389
v 1.615720 -0.138559 -1.206326
v 1.615720 -0.051558 -1.206326
v 2.019773 -0.138559 -1.616271
v 2.019773 0.143646 -1.616271
v 1.728318 -0.138559 1.913778
v 1.728318 0.143646 1.913778
v 1.620902 -0.138559 1.753096
v 1.620902 -0.051558 1.753095
v 2.030847 -0.138559 2.157148
v 2.030847 0.143646 2.157148
v -1.310499 -0.051559 -1.205145
v -1.777861 -0.134170 1.454293
v -1.509522 -0.134170 1.454293
v -1.509522 -0.134170 1.722633
v -1.777861 -0.134170 1.722633
v -1.777861 0.134170 1.454293
v -1.509522 0.134170 1.454293
v -1.509522 0.134170 1.722633
v -1.777861 0.134170 1.722633
v -1.345112 -0.138560 1.454293
v -1.345112 -0.138560 1.722633
v -1.345111 -0.051559 1.454293
v -1.345112 -0.051559 1.722633
v -1.504638 -0.138559 1.866721
v -1.313885 0.016476 1.454293
v -1.504637 0.143646 1.866721
v -1.777861 -0.134169 -0.975501
v -1.509521 -0.134169 -0.975501
v -1.777861 0.134171 -0.975501
v -1.509521 0.134171 -0.975501
v -1.345111 -0.138560 -0.975501
v -1.345111 -0.051558 -0.975501
v -1.313885 -0.136114 -0.975501
v -1.313885 0.016477 -0.975501
v -1.779875 -0.134169 -1.162409
v -1.511535 -0.134169 -1.162409
v -1.779875 0.134171 -1.162409
v -1.511535 0.134171 -1.162409
v -1.347125 -0.138559 -1.162409
v -1.347125 -0.051558 -1.162409
v -1.343955 -0.138559 1.759305
v -1.343955 -0.051558 1.759305
v -1.748008 -0.138559 2.169250
v -1.748008 0.143646 2.169250
v -1.456553 -0.138559 -1.360798
v -1.456553 0.143646 -1.360798
v -1.349138 -0.138559 -1.200116
v -1.349138 -0.051558 -1.200116
v -1.759083 -0.138559 -1.604169
v -1.759083 0.143646 -1.604169
vt 0.112506 0.000000
vt 0.112477 0.040285
vt 0.071379 0.040490
vt 0.071407 0.000206
vt 0.790489 0.473960
vt 0.790703 0.433168
vt 0.831291 0.433146
vt 0.831077 0.473938
vt 0.966319 0.474055
vt 0.989358 0.474111
vt 0.989367 0.838569
vt 0.966328 0.838512
vt 0.112462 0.064967
vt 0.071364 0.065172
vt 0.416929 0.615968
vt 0.417340 0.575706
vt 0.376831 0.575219
vt 0.376420 0.615480
vt 0.623590 0.458259
vt 0.664093 0.458360
vt 0.664087 0.499125
vt 0.623583 0.499023
vt 0.404209 0.640629
vt 0.417340 0.640644
vt 0.416928 0.645670
vt 0.393892 0.645392
vt 0.861030 0.474950
vt 0.861042 0.434185
vt 0.890581 0.433146
vt 0.890560 0.473992
vt 0.479997 0.040539
vt 0.479981 0.065221
vt 0.966353 0.433146
vt 0.989392 0.433203
vt 0.112458 0.069655
vt 0.071230 0.070210
vt 0.717657 0.607389
vt 0.717681 0.566544
vt 0.728268 0.566312
vt 0.728231 0.607219
vt 0.728241 0.971668
vt 0.717667 0.971838
vt 0.480025 0.000255
vt 0.508122 0.000274
vt 0.508094 0.040559
vt 0.861049 0.839408
vt 0.890579 0.838449
vt 0.890581 0.866312
vt 0.861051 0.867271
vt 0.479977 0.069909
vt 0.508078 0.065241
vt 0.508564 0.070338
vt 0.831275 0.838712
vt 0.790687 0.838733
vt 0.623514 0.093810
vt 0.664017 0.093911
vt 0.499177 0.645259
vt 0.458676 0.645579
vt 0.458265 0.605319
vt 0.498766 0.604999
vt 0.486046 0.580430
vt 0.499177 0.580326
vt 0.475757 0.575401
vt 0.498788 0.575219
vt 0.728268 1.000000
vt 0.717668 0.999701
vt 0.989392 0.866901
vt 0.966353 0.866844
vt 0.831291 0.866599
vt 0.790703 0.866621
vt 0.623508 0.065947
vt 0.664011 0.066049
vt 0.467599 0.575219
vt 0.467628 0.534934
vt 0.508364 0.534672
vt 0.508336 0.574957
vt 0.749637 0.040461
vt 0.749901 0.000029
vt 0.790489 0.000000
vt 0.790225 0.040432
vt 0.920163 0.473841
vt 0.943195 0.473900
vt 0.943243 0.838349
vt 0.920211 0.838290
vt 0.467647 0.510252
vt 0.508383 0.509990
vt 0.335099 0.615973
vt 0.294600 0.615479
vt 0.295010 0.575219
vt 0.335509 0.575713
vt 0.620126 0.107840
vt 0.579611 0.107747
vt 0.579621 0.067338
vt 0.620136 0.067431
vt 0.322372 0.640203
vt 0.335509 0.640649
vt 0.335102 0.646019
vt 0.312072 0.645738
vt 0.779283 0.826303
vt 0.779264 0.866711
vt 0.749643 0.867516
vt 0.749643 0.827267
vt 0.100108 0.534680
vt 0.100128 0.509998
vt 0.920222 0.433146
vt 0.943254 0.433206
vt 0.467649 0.505564
vt 0.508645 0.504603
vt 0.707047 0.607177
vt 0.707042 0.566927
vt 0.717657 0.566312
vt 0.717602 0.607006
vt 0.717647 0.971463
vt 0.707092 0.971634
vt 0.100080 0.574964
vt 0.071547 0.575033
vt 0.071575 0.534749
vt 0.779277 0.461854
vt 0.749637 0.462818
vt 0.749643 0.434519
vt 0.779283 0.433555
vt 0.100130 0.505310
vt 0.071594 0.510067
vt 0.071351 0.505174
vt 0.790489 0.405206
vt 0.749901 0.405235
vt 0.620197 0.472297
vt 0.579681 0.472204
vt 0.540099 0.645048
vt 0.499588 0.645375
vt 0.499177 0.605114
vt 0.539688 0.604787
vt 0.526964 0.580220
vt 0.540099 0.580114
vt 0.516658 0.575405
vt 0.539694 0.575219
vt 0.717657 0.999997
vt 0.707090 0.999933
vt 0.943254 0.866882
vt 0.920222 0.866823
vt 0.790420 0.433526
vt 0.749832 0.433555
vt 0.620197 0.500596
vt 0.579682 0.500503
vt 0.579204 0.111080
vt 0.538616 0.111052
vt 0.538645 0.070767
vt 0.579233 0.070795
vt 0.831333 0.392834
vt 0.831362 0.433118
vt 0.790774 0.433146
vt 0.790745 0.392862
vt 0.943254 0.473834
vt 0.966291 0.473878
vt 0.966311 0.838460
vt 0.943274 0.838416
vt 0.513750 0.111035
vt 0.513779 0.070750
vt 0.376009 0.615983
vt 0.376420 0.575736
vt 0.335920 0.575219
vt 0.335509 0.615466
vt 0.747934 0.107503
vt 0.707432 0.107424
vt 0.707424 0.067161
vt 0.747927 0.067241
vt 0.363289 0.640483
vt 0.376420 0.640650
vt 0.376025 0.645799
vt 0.352995 0.645504
vt 0.890599 0.474154
vt 0.890599 0.433890
vt 0.920163 0.433146
vt 0.920163 0.473410
vt 0.538360 0.475826
vt 0.513494 0.475809
vt 0.943282 0.433146
vt 0.966319 0.433191
vt 0.509026 0.111031
vt 0.989394 0.473967
vt 0.989392 0.433705
vt 1.000000 0.433146
vt 0.999970 0.473834
vt 0.999992 0.838406
vt 0.989416 0.838540
vt 0.578948 0.475854
vt 0.579233 0.503914
vt 0.538645 0.503886
vt 0.890600 0.838736
vt 0.920163 0.837992
vt 0.920163 0.865864
vt 0.890581 0.866790
vt 0.508770 0.475805
vt 0.513779 0.503869
vt 0.790489 0.028088
vt 0.831077 0.028060
vt 0.748004 0.472076
vt 0.707502 0.471996
vt 0.458265 0.645249
vt 0.417751 0.645556
vt 0.417340 0.605309
vt 0.457854 0.605002
vt 0.445116 0.580142
vt 0.458265 0.580337
vt 0.434850 0.575394
vt 0.457888 0.575219
vt 1.000000 0.867184
vt 0.989417 0.866412
vt 0.966319 0.867240
vt 0.943282 0.867195
vt 0.790774 0.000028
vt 0.831362 0.000000
vt 0.747990 0.500130
vt 0.707488 0.500050
vt 0.562433 0.617509
vt 0.562433 0.630547
vt 0.556908 0.630561
vt 0.556908 0.617523
vt 0.551358 0.630546
vt 0.545809 0.630547
vt 0.545809 0.617510
vt 0.551358 0.617509
vt 0.567960 0.635526
vt 0.562733 0.634954
vt 0.562433 0.629845
vt 0.567960 0.630018
vt 0.422865 0.686861
vt 0.447834 0.687834
vt 0.447834 0.645556
vt 0.422865 0.673827
vt 0.185610 0.645847
vt 0.201904 0.672996
vt 0.207451 0.672823
vt 0.207451 0.646589
vt 0.418392 0.647608
vt 0.417340 0.673841
vt 0.513608 0.065245
vt 0.537923 0.049136
vt 0.621761 0.638308
vt 0.621761 0.682575
vt 0.664307 0.684798
vt 0.664307 0.640531
vt 0.212763 0.615503
vt 0.212763 0.575219
vt 0.145210 0.579705
vt 0.190969 0.616241
vt 0.574766 0.003744
vt 0.141760 0.645847
vt 0.182348 0.645847
vt 0.664437 0.000107
vt 0.621841 0.000000
vt 0.707043 0.000000
vt 0.749637 0.000083
vt 0.571207 0.614356
vt 0.571024 0.601301
vt 0.576734 0.601308
vt 0.576734 0.614345
vt 0.545809 0.630543
vt 0.540099 0.630543
vt 0.540226 0.617527
vt 0.545776 0.617509
vt 0.576551 0.633078
vt 0.571422 0.632836
vt 0.571024 0.627397
vt 0.576551 0.627570
vt 0.463792 0.686861
vt 0.488623 0.687856
vt 0.488623 0.645579
vt 0.463792 0.673827
vt 0.141760 0.645847
vt 0.158226 0.672909
vt 0.163770 0.672657
vt 0.163770 0.646289
vt 0.458910 0.647599
vt 0.458265 0.673839
vt 0.514079 0.509529
vt 0.530309 0.533663
vt 0.693118 0.613271
vt 0.693118 0.569370
vt 0.650590 0.566983
vt 0.650590 0.610884
vt 0.141760 0.615504
vt 0.141760 0.575219
vt 0.074062 0.579991
vt 0.119821 0.616528
vt 0.576043 0.570231
vt 0.070913 0.646311
vt 0.111501 0.646311
vt 0.707042 0.566228
vt 0.749637 0.566312
vt 0.579233 0.000000
vt 0.621841 0.000098
vt 0.404229 0.640418
vt 0.000028 0.464316
vt 0.040616 0.464344
vt 0.040588 0.504628
vt 0.000000 0.504600
vt 0.872206 0.392834
vt 0.872234 0.433118
vt 0.831646 0.433146
vt 0.831618 0.392862
vt 0.065486 0.464361
vt 0.065458 0.504646
vt 0.253275 0.615975
vt 0.212763 0.615467
vt 0.213174 0.575219
vt 0.253686 0.575727
vt 0.705355 0.107496
vt 0.664843 0.107423
vt 0.664836 0.067160
vt 0.705347 0.067232
vt 0.240551 0.640478
vt 0.253686 0.640642
vt 0.253289 0.646462
vt 0.230252 0.646173
vt 0.861028 0.825773
vt 0.861030 0.866035
vt 0.831380 0.866795
vt 0.831378 0.826532
vt 0.040873 0.099570
vt 0.065742 0.099587
vt 0.779285 0.474513
vt 0.779283 0.434249
vt 0.789915 0.433555
vt 0.789846 0.474381
vt 0.789868 0.838962
vt 0.779307 0.839095
vt 0.000285 0.099542
vt 0.000000 0.071482
vt 0.040588 0.071510
vt 0.861011 0.461201
vt 0.831362 0.461960
vt 0.831380 0.433906
vt 0.861030 0.433146
vt 0.070464 0.099591
vt 0.065458 0.071527
vt 0.831362 0.028088
vt 0.871950 0.028060
vt 0.705421 0.472078
vt 0.664909 0.472005
vt 0.294599 0.645907
vt 0.294189 0.605660
vt 0.253686 0.605958
vt 0.254097 0.646205
vt 0.294600 0.580997
vt 0.281468 0.581093
vt 0.271226 0.575388
vt 0.294258 0.575219
vt 0.789915 0.868304
vt 0.779290 0.867149
vt 0.399452 0.675097
vt 0.376420 0.675010
vt 0.376420 0.645670
vt 0.399452 0.645757
vt 0.831647 0.000028
vt 0.872235 0.000000
vt 0.705407 0.500132
vt 0.664896 0.500060
vt 0.571024 0.601301
vt 0.571024 0.588267
vt 0.576988 0.588257
vt 0.576988 0.601291
vt 0.551358 0.617510
vt 0.556908 0.617509
vt 0.556908 0.630543
vt 0.551358 0.630544
vt 0.562433 0.629845
vt 0.563050 0.624030
vt 0.567982 0.623832
vt 0.567982 0.629753
vt 0.546063 0.616606
vt 0.546063 0.603568
vt 0.571024 0.575219
vt 0.571024 0.617509
vt 0.163770 0.645847
vt 0.180063 0.673109
vt 0.185610 0.672941
vt 0.185610 0.646609
vt 0.541137 0.577220
vt 0.540099 0.603578
vt 0.065629 0.510151
vt 0.041313 0.526260
vt 0.621761 0.684914
vt 0.579233 0.682553
vt 0.579233 0.638308
vt 0.621761 0.640669
vt 0.070913 0.615504
vt 0.070913 0.575219
vt 0.003360 0.579697
vt 0.049119 0.616233
vt 0.004470 0.571652
vt 0.000000 0.646280
vt 0.040588 0.646280
vt 0.579233 0.566885
vt 0.621841 0.566983
vt 0.664438 0.000000
vt 0.707042 0.000077
vt 0.571024 0.627390
vt 0.571024 0.614356
vt 0.576734 0.614363
vt 0.576734 0.627397
vt 0.577254 0.588257
vt 0.571024 0.588257
vt 0.571049 0.575227
vt 0.577198 0.575219
vt 0.568140 0.623832
vt 0.563239 0.623307
vt 0.562433 0.617509
vt 0.568140 0.617721
vt 0.554413 0.679656
vt 0.554413 0.666619
vt 0.579233 0.638308
vt 0.579233 0.680595
vt 0.335509 0.645799
vt 0.351893 0.672772
vt 0.358038 0.672530
vt 0.358038 0.646282
vt 0.549511 0.640293
vt 0.548703 0.666612
vt 0.065157 0.065866
vt 0.048927 0.041733
vt 0.541728 0.691500
vt 0.499177 0.689288
vt 0.499177 0.645375
vt 0.541728 0.647587
vt 0.650590 0.607267
vt 0.650590 0.566983
vt 0.582374 0.571989
vt 0.628133 0.608525
vt 0.003193 0.005165
vt 0.579233 0.638308
vt 0.619820 0.638308
vt 0.664437 0.566242
vt 0.707042 0.566318
vt 0.664437 0.566980
vt 0.621841 0.566873
vn -0.0000 -1.0000 0.0000
vn -0.0000 1.0000 0.0000
vn -0.0000 -0.0000 1.0000
vn -0.0002 -0.9996 -0.0267
vn 1.0000 0.0000 0.0000
vn -0.0057 0.0000 -1.0000
vn -0.9999 -0.0020 -0.0163
vn 0.0056 0.6639 0.7478
vn -1.0000 -0.0014 -0.0023
vn 0.0000 -0.9996 -0.0267
vn 0.0143 -0.0000 0.9999
vn 0.0008 -0.9972 0.0753
vn -0.0107 0.4245 -0.9053
vn 0.0000 0.4171 -0.9088
vn -0.0000 0.6628 0.7488
vn -0.0005 -0.9972 0.0748
vn 0.0000 -0.9969 0.0781
vn 0.0000 0.0000 -1.0000
vn 0.9955 0.0000 -0.0951
vn 0.0066 0.4319 -0.9019
vn -0.0144 -0.0000 0.9999
vn 0.0002 -0.9996 0.0267
vn 0.0072 0.0000 1.0000
vn 0.9989 0.0000 0.0476
vn -0.0054 0.6628 -0.7488
vn -0.0000 -0.9996 0.0267
vn -0.0243 0.0000 -0.9997
vn -0.0011 -0.9974 -0.0727
vn 0.0142 0.4421 0.8968
vn -0.0000 0.4171 0.9088
vn -0.0023 0.6628 -0.7488
vn 0.0000 -0.9971 -0.0764
vn 0.0000 0.6628 -0.7488
vn -0.0000 -0.9969 -0.0781
vn -1.0000 0.0000 0.0000
vn -0.9988 0.0000 0.0497
vn -0.0004 0.4246 0.9054
vn 0.0040 -0.0000 -1.0000
vn 0.0001 -0.9996 0.0267
vn 0.0031 0.0000 1.0000
vn 0.0267 -0.9996 0.0000
vn 0.0788 0.0000 -0.9969
vn -0.7488 0.6628 -0.0000
vn -0.9999 -0.0000 0.0120
vn -0.0743 -0.9972 0.0004
vn 0.9006 0.4347 -0.0054
vn 0.9088 0.4171 0.0000
vn -0.7487 0.6628 0.0081
vn -0.0748 -0.9972 0.0003
vn -0.0781 -0.9969 0.0000
vn 0.1434 0.0000 0.9897
vn 0.9019 0.4320 -0.0031
vn -1.0000 -0.0000 -0.0036
vn 0.0267 -0.9996 -0.0003
vn 0.9999 0.0000 -0.0108
vn -0.9995 -0.0000 0.0315
vn -0.5714 -0.5730 0.5876
vn 0.5558 0.0000 0.8313
vn -0.7509 0.6577 0.0596
vn -0.2087 0.6249 0.7523
vn 0.0213 -0.9995 0.0236
vn -0.0130 -0.9996 -0.0238
vn 0.7792 0.0000 0.6268
vn 0.0183 0.9994 0.0310
vn 0.0085 -0.9999 0.0144
vn -0.0131 -0.9999 -0.0056
vn -0.0282 0.9995 -0.0120
vn 0.0517 0.0000 -0.9987
vn 0.9978 0.0000 -0.0667
vn -0.9986 -0.0000 0.0533
vn -0.0819 -0.0000 -0.9966
vn -0.6126 -0.5816 -0.5352
vn -0.8313 0.0000 0.5558
vn -0.0748 0.6595 -0.7480
vn -0.7576 0.6229 -0.1950
vn -0.0229 -0.9995 0.0211
vn 0.0240 -0.9996 -0.0132
vn -0.6268 0.0000 0.7792
vn -0.0308 0.9994 0.0182
vn -0.0143 -0.9999 0.0084
vn 0.0056 -0.9999 -0.0131
vn 0.0120 0.9995 -0.0282
vn 0.9989 0.0000 0.0470
vn 0.0708 0.0000 0.9975
vn -0.9997 -0.0099 0.0205
vn -0.9999 -0.0067 -0.0112
vn -0.0267 -0.9996 0.0000
vn -0.0893 0.0000 0.9960
vn 0.7488 0.6628 0.0000
vn -0.8888 0.4582 0.0127
vn -0.9088 0.4171 0.0000
vn 0.7487 0.6628 -0.0081
vn 0.0704 -0.9975 0.0005
vn -0.2248 0.0000 -0.9744
vn -0.8910 0.4539 -0.0068
vn 0.9997 -0.0000 0.0251
vn -0.0267 -0.9996 0.0003
vn -0.9999 0.0000 0.0108
vn -0.0150 0.0000 -0.9999
vn 0.9995 0.0000 -0.0315
vn 0.5356 -0.5916 -0.6026
vn 0.7509 0.6577 -0.0596
vn 0.2007 0.6237 -0.7554
vn -0.0213 -0.9995 -0.0236
vn 0.0128 -0.9996 0.0237
vn -0.0183 0.9994 -0.0310
vn -0.0085 -0.9999 -0.0144
vn 0.0130 -0.9999 0.0055
vn 0.0280 0.9995 0.0119
vn -0.0500 0.0000 0.9987
vn -0.9978 0.0000 0.0667
vn 0.9986 0.0000 -0.0533
vn 0.1017 -0.0052 0.9948
vn 0.5935 -0.5852 0.5525
vn 0.0808 0.6611 0.7459
vn 0.7576 0.6229 0.1950
vn 0.0217 -0.9995 -0.0207
vn -0.0240 -0.9996 0.0132
vn 0.0303 0.9994 -0.0179
vn 0.0141 -0.9999 -0.0083
vn -0.0056 -0.9999 0.0131
vn -0.0120 0.9995 0.0282
vn -0.9989 0.0000 -0.0470
vn -0.0737 0.0000 -0.9973
usemtl Material.001
s off
f 1/1/1 2/2/1 3/3/1 4/4/1
f 5/5/2 8/6/2 7/7/2 6/8/2
f 15/9/3 13/10/3 23/11/3 24/12/3
f 3/3/4 2/2/4 9/13/4 10/14/4
f 3/15/5 4/16/5 8/17/5 7/18/5
f 5/19/6 1/20/6 4/21/6 8/22/6
f 12/23/7 10/24/7 14/25/7 16/26/7
f 6/27/8 7/28/8 12/29/8 11/30/8
f 7/18/9 3/15/9 10/24/9 12/23/9
f 9/13/10 2/2/10 18/31/10 21/32/10
f 13/10/11 15/9/11 16/33/11 14/34/11
f 10/14/12 9/13/12 13/35/12 14/36/12
f 11/37/13 12/38/13 16/39/13 15/40/13
f 11/37/14 15/40/14 24/41/14 22/42/14
f 18/31/1 17/43/1 25/44/1 26/45/1
f 20/46/15 22/47/15 30/48/15 28/49/15
f 23/50/16 21/32/16 29/51/16 31/52/16
f 6/27/15 11/30/15 22/47/15 20/46/15
f 5/5/2 6/8/2 20/53/2 19/54/2
f 13/35/17 9/13/17 21/32/17 23/50/17
f 1/20/18 5/19/18 19/55/18 17/56/18
f 2/2/1 1/1/1 17/43/1 18/31/1
f 25/57/5 27/58/5 28/59/5 26/60/5
f 26/60/5 28/59/5 30/61/5 29/62/5
f 29/62/19 30/61/19 32/63/19 31/64/19
f 22/42/20 24/41/20 32/65/20 30/66/20
f 24/12/21 23/11/21 31/67/21 32/68/21
f 21/32/10 18/31/10 26/45/10 29/51/10
f 19/54/2 20/53/2 28/69/2 27/70/2
f 17/56/18 19/55/18 27/71/18 25/72/18
f 33/73/1 34/74/1 35/75/1 36/76/1
f 37/77/2 40/78/2 39/79/2 38/80/2
f 47/81/18 45/82/18 55/83/18 56/84/18
f 35/75/22 34/74/22 41/85/22 42/86/22
f 35/87/5 39/88/5 40/89/5 36/90/5
f 37/91/23 33/92/23 36/93/23 40/94/23
f 44/95/24 42/96/24 46/97/24 48/98/24
f 38/99/25 39/100/25 44/101/25 43/102/25
f 39/88/5 35/87/5 42/96/5 44/95/5
f 41/85/26 34/74/26 50/103/26 53/104/26
f 45/82/27 47/81/27 48/105/27 46/106/27
f 42/86/28 41/85/28 45/107/28 46/108/28
f 43/109/29 44/110/29 48/111/29 47/112/29
f 43/109/30 47/112/30 56/113/30 54/114/30
f 50/103/1 49/115/1 57/116/1 58/117/1
f 52/118/31 54/119/31 62/120/31 60/121/31
f 55/122/32 53/104/32 61/123/32 63/124/32
f 38/99/33 43/102/33 54/119/33 52/118/33
f 37/77/2 38/80/2 52/125/2 51/126/2
f 45/107/34 41/85/34 53/104/34 55/122/34
f 33/92/3 37/91/3 51/127/3 49/128/3
f 34/74/1 33/73/1 49/115/1 50/103/1
f 57/129/35 59/130/35 60/131/35 58/132/35
f 58/132/35 60/131/35 62/133/35 61/134/35
f 61/134/36 62/133/36 64/135/36 63/136/36
f 54/114/37 56/113/37 64/137/37 62/138/37
f 56/84/38 55/83/38 63/139/38 64/140/38
f 53/104/39 50/103/39 58/117/39 61/123/39
f 51/126/2 52/125/2 60/141/2 59/142/2
f 49/128/40 51/127/40 59/143/40 57/144/40
f 65/145/1 66/146/1 67/147/1 68/148/1
f 69/149/2 72/150/2 71/151/2 70/152/2
f 79/153/35 77/154/35 87/155/35 88/156/35
f 67/147/41 66/146/41 73/157/41 74/158/41
f 67/159/3 68/160/3 72/161/3 71/162/3
f 69/163/5 65/164/5 68/165/5 72/166/5
f 76/167/42 74/168/42 31/169/42 32/170/42
f 70/171/43 71/172/43 76/173/43 75/174/43
f 71/162/3 76/167/3 74/168/3 67/159/3
f 73/157/41 66/146/41 82/175/41 85/176/41
f 77/154/44 79/153/44 32/177/44 31/178/44
f 74/158/45 73/157/45 77/179/45 31/52/45
f 75/180/46 76/181/46 32/182/46 79/183/46
f 75/180/47 79/183/47 88/184/47 86/185/47
f 82/175/1 81/186/1 89/187/1 90/188/1
f 84/189/48 86/190/48 94/191/48 92/192/48
f 87/193/49 85/176/49 93/194/49 46/108/49
f 70/171/43 75/174/43 86/190/43 84/189/43
f 69/149/2 70/152/2 84/195/2 83/196/2
f 77/179/50 73/157/50 85/176/50 87/193/50
f 65/164/5 69/163/5 83/197/5 81/198/5
f 66/146/1 65/145/1 81/186/1 82/175/1
f 89/199/3 91/200/3 92/201/3 90/202/3
f 90/202/3 92/201/3 94/203/3 93/204/3
f 93/204/51 94/203/51 48/205/51 46/206/51
f 86/185/52 88/184/52 48/207/52 94/208/52
f 88/156/53 87/155/53 46/209/53 48/210/53
f 85/176/54 82/175/54 90/188/54 93/194/54
f 83/196/2 84/195/2 92/211/2 91/212/2
f 81/198/55 83/197/55 91/213/55 89/214/55
f 30/215/3 29/216/3 95/217/3 96/218/3
f 95/219/56 74/220/56 76/221/56 96/222/56
f 76/223/57 32/224/57 30/225/57 96/226/57
f 95/227/58 78/228/58 80/229/58 96/230/58
f 80/231/59 96/232/59 76/233/59 71/234/59
f 96/230/60 80/229/60 28/235/60 30/236/60
f 74/158/61 95/237/61 78/238/61 67/147/61
f 26/45/62 78/238/62 95/237/62 29/51/62
f 78/239/63 97/240/63 98/241/63 80/242/63
f 71/243/64 72/244/64 98/245/64 80/246/64
f 67/147/65 78/238/65 97/247/65 68/148/65
f 25/44/66 97/247/66 78/238/66 26/45/66
f 27/248/67 28/249/67 80/246/67 98/245/67
f 97/250/68 25/72/68 27/71/68 98/251/68
f 68/165/69 97/252/69 98/253/69 72/166/69
f 94/254/70 93/255/70 101/256/70 102/257/70
f 101/258/71 42/259/71 44/260/71 102/261/71
f 44/262/72 48/263/72 94/264/72 102/265/72
f 101/266/73 99/267/73 100/268/73 102/269/73
f 100/270/74 102/271/74 44/272/74 39/273/74
f 102/269/75 100/268/75 92/274/75 94/275/75
f 42/86/76 101/276/76 99/277/76 35/75/76
f 90/188/77 99/277/77 101/276/77 93/194/77
f 99/278/78 103/279/78 104/280/78 100/281/78
f 39/282/79 40/283/79 104/284/79 100/285/79
f 35/75/80 99/277/80 103/286/80 36/76/80
f 89/187/81 103/286/81 99/277/81 90/188/81
f 91/287/82 92/288/82 100/285/82 104/284/82
f 103/289/83 89/214/83 91/213/83 104/290/83
f 36/93/84 103/291/84 104/292/84 40/94/84
f 105/293/85 10/24/85 14/25/85 16/26/85
f 7/18/86 3/15/86 10/24/86 105/293/86
f 106/294/1 107/295/1 108/296/1 109/297/1
f 110/298/2 113/299/2 112/300/2 111/301/2
f 108/296/87 107/295/87 114/302/87 115/303/87
f 108/304/3 112/305/3 113/306/3 109/307/3
f 110/308/35 106/309/35 109/310/35 113/311/35
f 117/312/88 115/313/88 63/314/88 64/315/88
f 111/316/89 112/317/89 117/318/89 116/319/89
f 112/305/3 108/304/3 115/313/3 117/312/3
f 114/302/87 107/295/87 122/320/87 125/321/87
f 116/322/90 117/323/90 64/324/90 119/325/90
f 116/322/91 119/325/91 128/326/91 126/327/91
f 122/320/1 121/328/1 129/329/1 130/330/1
f 124/331/92 126/332/92 134/333/92 132/334/92
f 127/335/93 125/321/93 133/336/93 14/36/93
f 111/316/89 116/319/89 126/332/89 124/331/89
f 110/298/2 111/301/2 124/337/2 123/338/2
f 106/309/35 110/308/35 123/339/35 121/340/35
f 107/295/1 106/294/1 121/328/1 122/320/1
f 129/341/3 130/342/3 132/343/3 131/344/3
f 130/342/3 133/345/3 134/346/3 132/343/3
f 133/345/94 134/346/94 16/347/94 14/348/94
f 126/327/95 128/326/95 16/349/95 134/350/95
f 128/351/96 127/352/96 14/353/96 16/354/96
f 125/321/97 122/320/97 130/330/97 133/336/97
f 123/338/2 124/337/2 132/355/2 131/356/2
f 121/340/98 123/339/98 131/357/98 129/358/98
f 62/359/99 61/360/99 135/361/99 136/362/99
f 135/363/100 115/364/100 117/365/100 136/366/100
f 117/367/101 64/368/101 62/369/101 136/370/101
f 135/371/58 136/372/58 120/373/58 118/374/58
f 120/375/102 136/376/102 117/377/102 112/378/102
f 136/372/103 120/373/103 60/379/103 62/380/103
f 115/303/104 135/381/104 118/382/104 108/296/104
f 58/117/105 118/382/105 135/381/105 61/123/105
f 118/383/63 120/384/63 138/385/63 137/386/63
f 112/387/106 113/388/106 138/389/106 120/390/106
f 108/296/107 118/382/107 137/391/107 109/297/107
f 57/116/108 137/391/108 118/382/108 58/117/108
f 59/392/109 60/393/109 120/390/109 138/389/109
f 137/394/110 57/144/110 59/143/110 138/395/110
f 109/310/111 137/396/111 138/397/111 113/311/111
f 134/398/112 133/399/112 141/400/112 142/401/112
f 141/402/113 10/403/113 12/404/113 142/405/113
f 12/406/114 16/407/114 134/408/114 142/409/114
f 141/410/73 142/411/73 140/412/73 139/413/73
f 140/414/115 142/415/115 12/416/115 7/417/115
f 142/411/116 140/412/116 132/418/116 134/419/116
f 10/14/117 141/420/117 139/421/117 3/3/117
f 130/330/118 139/421/118 141/420/118 133/336/118
f 139/422/78 140/423/78 144/424/78 143/425/78
f 7/426/119 8/427/119 144/428/119 140/429/119
f 3/3/120 139/421/120 143/430/120 4/4/120
f 129/329/121 143/430/121 139/421/121 130/330/121
f 131/431/122 132/432/122 140/429/122 144/428/122
f 143/433/123 129/358/123 131/357/123 144/434/123
f 4/21/124 143/435/124 144/436/124 8/22/124
